<?xml version="1.0" standalone="no"?>
<!DOCTYPE svg PUBLIC "-//W3C//DTD SVG 20010904//EN"
 "http://www.w3.org/TR/2001/REC-SVG-20010904/DTD/svg10.dtd">
<svg version="1.0" xmlns="http://www.w3.org/2000/svg"
 width="626.000000pt" height="351.000000pt" viewBox="0 0 626.000000 351.000000"
 preserveAspectRatio="xMidYMid meet">

<g transform="translate(0.000000,351.000000) scale(0.100000,-0.100000)"
fill="#000000" stroke="none">
<path d="M1450 3199 c-115 -21 -279 -67 -241 -68 16 -1 21 -6 18 -15 -5 -13 8
-21 66 -40 20 -6 24 9 4 17 -8 3 -13 16 -12 29 2 29 38 35 89 14 23 -10 38
-11 42 -5 3 6 18 8 33 5 14 -3 20 -3 14 0 -22 9 -14 33 12 40 14 3 36 3 49 0
14 -3 26 -1 28 5 2 5 55 16 118 23 l115 13 -115 1 c-72 0 -154 -7 -220 -19z
m-30 -49 c0 -5 -9 -10 -20 -10 -11 0 -20 5 -20 10 0 6 9 10 20 10 11 0 20 -4
20 -10z"/>
<path d="M1838 3213 c23 -2 59 -2 80 0 20 2 1 4 -43 4 -44 0 -61 -2 -37 -4z"/>
<path d="M2045 3190 c-3 -6 1 -7 9 -4 18 7 21 14 7 14 -6 0 -13 -4 -16 -10z"/>
<path d="M1925 3155 c-25 -11 -27 -14 -9 -14 12 -1 27 6 34 14 15 18 14 18
-25 0z"/>
<path d="M1968 3143 c7 -3 16 -2 19 1 4 3 -2 6 -13 5 -11 0 -14 -3 -6 -6z"/>
<path d="M1830 3122 c-54 -27 -80 -46 -80 -59 0 -6 -8 -14 -17 -16 -10 -3 1
-5 25 -6 23 0 42 -5 42 -10 0 -4 26 -16 58 -25 89 -27 112 -37 112 -51 0 -6
19 -18 43 -25 58 -18 62 -24 32 -44 -20 -13 -30 -14 -46 -5 -11 6 -23 9 -25 6
-2 -2 7 -10 21 -17 26 -14 31 -25 15 -35 -13 -8 -2 -32 39 -87 19 -26 45 -49
59 -53 37 -9 57 -34 53 -67 -2 -23 1 -28 18 -28 14 0 21 -6 21 -20 0 -11 5
-20 10 -20 6 0 10 -7 10 -15 0 -12 -9 -14 -42 -9 -24 3 -51 6 -60 6 -25 -1
-32 16 -16 36 25 29 27 38 8 38 -10 0 -17 -3 -14 -7 4 -7 -101 -19 -189 -21
-30 0 -44 -4 -35 -9 8 -5 -12 -9 -49 -9 -62 0 -86 -16 -42 -27 26 -7 24 -59
-3 -57 -10 1 -18 -4 -18 -12 0 -8 -9 -14 -19 -14 -11 0 -26 -3 -35 -6 -14 -5
-14 -8 0 -21 8 -9 18 -13 21 -9 11 11 33 -32 26 -51 -11 -32 -36 -54 -54 -48
-12 4 -19 -1 -24 -15 -3 -11 -14 -20 -23 -21 -10 -1 -7 -4 8 -8 14 -5 31 -3
39 3 11 8 13 8 7 -1 -4 -7 -2 -13 3 -13 6 0 11 9 11 20 0 24 70 74 84 60 7 -7
-9 -27 -45 -59 -49 -45 -53 -51 -41 -70 14 -23 17 -81 4 -81 -9 0 -27 33 -37
68 -4 15 -15 22 -33 24 -44 2 -76 -3 -89 -14 -7 -6 -25 -8 -40 -5 -39 7 -96
-22 -89 -46 2 -11 1 -30 -5 -44 -11 -30 21 -98 52 -108 28 -9 76 12 82 36 3
12 14 19 31 19 24 0 25 -1 12 -32 -30 -73 -30 -76 6 -75 72 0 71 1 64 -46 -6
-37 -3 -46 18 -66 19 -18 28 -21 42 -13 13 7 25 7 37 0 15 -8 22 -5 34 11 8
12 28 28 45 37 25 13 32 14 39 2 7 -10 9 -11 9 0 0 9 9 7 29 -7 16 -12 34 -21
40 -21 14 0 14 -2 0 -37 -6 -15 -13 -41 -15 -57 -2 -16 -11 -37 -19 -46 -8 -9
-16 -32 -17 -52 -2 -20 -5 -36 -8 -36 -3 1 -13 -2 -23 -7 -15 -6 -16 -10 -5
-17 9 -7 8 -8 -5 -4 -25 8 -57 -11 -57 -34 0 -40 70 -50 110 -16 21 18 169 29
187 15 22 -19 93 -4 120 26 30 32 28 69 -4 73 -24 4 -26 9 -23 53 1 20 -5 29
-29 39 -38 15 -31 33 7 19 24 -9 88 -69 109 -102 11 -16 92 -55 131 -63 17 -4
37 -13 43 -20 6 -8 19 -14 29 -14 12 0 19 -10 23 -32 3 -28 -2 -40 -34 -77
-32 -35 -39 -52 -39 -85 -1 -59 -38 -128 -73 -137 -42 -11 -99 -58 -93 -76 7
-18 -90 -143 -111 -143 -7 0 -18 -11 -23 -24 -10 -28 -47 -56 -73 -56 -10 0
-21 -9 -24 -20 -3 -13 -14 -20 -29 -20 -20 0 -24 -5 -24 -29 0 -20 -8 -36 -22
-46 -22 -15 -22 -17 -5 -30 18 -13 18 -15 -8 -37 -41 -35 -46 -59 -19 -80 12
-10 27 -18 33 -18 27 0 8 -18 -24 -23 -54 -9 -119 28 -131 73 0 3 -4 12 -8 22
-4 9 -2 33 4 55 6 21 13 66 16 101 2 35 12 78 21 95 17 33 41 201 42 294 1 51
0 53 -38 72 -29 15 -49 38 -77 88 -69 120 -80 145 -67 150 7 3 10 16 6 36 -4
26 1 39 26 67 34 38 40 83 17 115 -11 15 -17 17 -28 7 -19 -15 -77 13 -113 57
-15 17 -32 31 -39 31 -7 0 -33 13 -57 30 -25 17 -57 30 -75 30 -60 0 -164 57
-164 89 0 10 -27 47 -60 82 -33 35 -62 72 -65 82 -4 9 -11 17 -17 17 -6 0 -3
-10 5 -22 28 -40 67 -111 64 -115 -9 -8 -37 10 -42 28 -4 10 -15 24 -26 30
-12 6 -18 17 -15 24 3 8 1 17 -5 20 -5 4 -18 24 -29 45 -11 21 -32 45 -47 52
-15 7 -41 33 -58 56 -27 40 -30 51 -30 123 0 78 0 79 -32 99 -22 13 -31 25
-27 35 4 9 -1 18 -12 22 -11 4 -27 17 -37 30 -10 13 -27 23 -37 23 -10 0 -20
4 -22 8 -1 4 -21 22 -43 39 -29 23 -55 34 -95 39 -30 4 -63 11 -72 15 -11 6
-28 2 -53 -12 -27 -16 -39 -18 -49 -10 -10 8 -16 8 -26 -3 -20 -25 -92 -62
-144 -75 -64 -16 -69 -8 -9 15 26 9 55 23 63 31 12 11 10 13 -18 13 -18 0 -39
6 -46 12 -11 11 -8 16 15 30 16 10 41 35 56 57 21 30 42 45 86 61 69 26 86 27
204 16 65 -6 102 -5 128 4 20 7 87 12 148 12 104 1 121 -2 227 -38 81 -27 125
-47 151 -71 20 -18 43 -33 52 -33 9 0 18 -4 21 -8 19 -31 94 -67 150 -73 119
-13 148 -21 153 -40 3 -11 9 -19 14 -19 5 0 9 -7 9 -15 0 -8 7 -15 16 -15 12
0 15 7 12 25 -6 29 -2 31 18 10 11 -10 39 -15 92 -16 42 -1 91 -3 107 -4 28
-3 28 -2 -10 16 -26 12 -63 19 -106 19 -72 0 -85 6 -67 28 10 11 9 17 -3 26
-10 8 -14 30 -14 75 1 63 2 65 30 74 17 6 39 17 50 25 19 14 19 14 -5 8 -48
-14 -55 -12 -53 12 2 15 -3 22 -15 22 -9 0 -27 3 -38 6 -18 5 -21 1 -20 -22 1
-21 -6 -32 -24 -41 -22 -11 -23 -13 -5 -13 11 0 28 -6 37 -14 16 -12 16 -13 0
-27 -28 -24 -52 -30 -52 -14 0 8 8 15 18 16 11 0 12 2 4 6 -7 3 -18 0 -25 -6
-20 -16 -60 -2 -52 18 5 13 4 14 -6 4 -7 -7 -19 -13 -26 -13 -27 0 -93 -50
-93 -70 0 -11 5 -19 11 -18 6 2 14 -3 16 -9 9 -26 -29 -12 -58 20 -16 17 -40
44 -53 60 -18 19 -34 27 -58 27 -36 0 -139 64 -116 73 7 2 -7 4 -32 5 -65 0
-109 12 -120 32 -13 24 -37 32 -59 18 -14 -8 -26 -8 -50 3 -37 16 -37 19 -10
48 19 20 27 21 77 15 72 -8 63 4 -10 16 -38 6 -83 4 -149 -6 -52 -8 -184 -17
-294 -20 -119 -3 -251 -13 -326 -25 -69 -10 -142 -19 -162 -19 -28 0 -35 -3
-31 -15 5 -11 -1 -15 -20 -15 -16 0 -26 6 -26 15 0 8 -4 15 -10 15 -7 0 -10
-466 -10 -1379 l0 -1379 58 -7 c31 -5 111 -7 177 -6 95 2 124 6 138 19 12 10
32 15 57 13 21 -1 48 3 60 9 22 12 65 18 170 25 36 2 67 5 70 6 3 0 42 0 86
-1 51 -1 84 3 89 10 6 10 166 8 332 -5 53 -5 64 -3 81 15 21 22 111 42 134 30
7 -4 53 -11 102 -14 49 -4 97 -11 106 -16 21 -11 90 -1 90 13 0 6 15 7 36 4
30 -5 34 -4 24 8 -16 19 -4 35 26 35 13 0 24 4 24 9 0 16 42 24 50 11 6 -9 12
-10 26 -1 18 10 18 10 1 11 -21 0 -18 20 4 31 8 4 26 10 42 14 16 3 27 12 27
21 0 10 6 14 15 10 8 -3 33 1 56 9 42 15 89 20 89 9 0 -3 -7 -12 -15 -20 -8
-9 -15 -13 -15 -11 0 3 -12 2 -27 -2 -30 -8 -34 -25 -22 -99 5 -35 3 -51 -8
-64 -13 -15 -11 -18 24 -27 21 -6 51 -11 67 -11 15 0 54 -6 85 -14 84 -21 170
-28 226 -17 28 6 74 15 103 20 30 6 60 15 68 22 8 6 14 8 14 3 0 -5 5 -1 11 9
7 12 20 18 37 16 15 -1 38 2 52 8 68 28 130 43 238 59 15 2 110 6 212 9 102 4
190 6 195 7 6 0 46 -3 90 -7 62 -6 97 -3 151 10 54 13 79 15 108 7 27 -8 45
-7 69 2 18 8 55 17 82 21 28 4 53 11 56 17 11 17 107 20 162 4 29 -8 102 -20
162 -26 61 -6 114 -15 120 -21 13 -13 36 -11 69 6 15 8 34 15 41 15 7 0 15 6
18 14 5 11 29 14 118 11 98 -2 113 0 127 16 18 20 47 25 57 9 3 -5 28 -8 56
-5 32 3 63 -1 87 -10 26 -11 43 -13 62 -6 40 15 110 22 110 12 0 -16 71 -26
80 -11 8 12 72 15 170 8 42 -3 58 -1 67 11 11 14 16 14 51 -6 29 -16 59 -23
114 -24 40 -2 79 0 85 4 7 4 16 0 21 -9 5 -9 24 -18 43 -19 19 -2 61 -8 94
-14 33 -5 81 -13 107 -16 26 -3 50 -10 53 -16 4 -5 15 -9 25 -9 10 0 22 -5 25
-10 11 -18 -14 -38 -66 -55 -52 -18 -58 -25 -34 -45 11 -9 20 -8 45 7 23 13
33 15 38 6 4 -7 45 -14 95 -18 l87 -6 0 1289 0 1290 -21 5 c-11 3 -50 -5 -87
-18 -37 -13 -68 -20 -70 -16 -3 8 -75 -5 -102 -19 -9 -5 -14 -18 -12 -34 1
-14 -2 -26 -8 -26 -5 0 -10 -6 -11 -12 0 -13 -75 -78 -89 -78 -4 0 -12 18 -18
40 -8 34 -7 44 10 65 11 14 23 25 28 25 5 0 31 14 59 31 48 30 64 49 41 49 -5
0 -10 -4 -10 -8 0 -14 -48 -33 -55 -22 -14 23 -98 -2 -88 -26 4 -10 -4 -14
-29 -14 -19 0 -38 3 -42 7 -12 13 -139 2 -166 -13 -14 -8 -40 -25 -57 -38 -41
-30 -28 -43 40 -42 26 1 48 -1 48 -4 1 -3 3 -14 4 -25 1 -11 5 -30 9 -41 5
-15 2 -24 -10 -28 -15 -6 -16 -8 0 -24 20 -23 21 -36 0 -28 -20 8 -14 -14 8
-27 10 -7 25 -5 48 7 39 19 40 19 40 6 0 -5 -6 -10 -13 -10 -8 0 -22 -9 -32
-20 -10 -11 -21 -17 -26 -15 -4 3 -10 1 -14 -5 -3 -5 -17 -10 -31 -10 -23 0
-24 -1 -10 -22 12 -20 11 -28 -6 -65 -13 -31 -26 -45 -46 -49 -15 -4 -32 -11
-39 -16 -7 -5 -14 -5 -18 2 -3 5 -11 10 -16 10 -6 0 -8 -4 -5 -9 3 -4 -6 -13
-19 -19 -14 -7 -25 -16 -25 -22 0 -5 -7 -10 -15 -10 -23 0 -18 39 8 61 12 10
33 18 46 19 52 0 127 90 99 118 -6 6 -2 15 11 24 15 11 22 30 27 81 5 47 3 67
-5 67 -6 0 -11 -9 -11 -20 0 -31 -114 -144 -138 -138 -21 6 -45 -9 -55 -34 -3
-10 -14 -18 -22 -18 -14 0 -13 -4 4 -29 28 -39 26 -48 -9 -66 -39 -20 -43 -19
-36 9 3 14 1 28 -5 31 -5 4 -15 18 -20 32 -9 24 -10 24 -33 9 -23 -15 -25 -14
-28 6 -3 21 -3 21 -22 3 -18 -19 -18 -19 7 -26 47 -13 51 -21 18 -35 -34 -14
-41 -34 -12 -34 10 0 22 -7 25 -16 31 -80 -56 -192 -173 -224 -19 -5 -25 -12
-23 -28 2 -13 -3 -25 -13 -28 -22 -9 -30 3 -15 21 22 27 -3 41 -34 19 -33 -24
-32 -33 4 -74 41 -45 40 -84 -2 -122 -34 -30 -48 -35 -48 -16 0 7 -17 27 -37
46 l-38 33 -8 -32 c-10 -37 4 -72 39 -104 12 -11 25 -37 29 -58 l6 -38 -25 16
c-14 9 -30 33 -37 53 -6 20 -18 45 -27 54 -10 13 -13 29 -8 58 8 50 -15 90
-50 90 -19 0 -24 5 -24 26 0 14 -9 39 -21 55 -16 23 -28 29 -57 29 -23 0 -43
-7 -53 -17 -8 -10 -35 -36 -60 -58 -38 -33 -47 -48 -53 -86 -4 -29 -16 -54
-31 -69 l-23 -22 -22 49 c-12 26 -31 76 -42 111 -16 48 -28 67 -50 78 -15 8
-28 18 -28 22 -1 4 -10 18 -21 31 -18 22 -30 25 -97 27 -48 2 -81 8 -87 16 -5
7 -21 12 -34 10 -30 -5 -69 15 -77 40 -5 16 -44 27 -44 12 0 -15 42 -64 51
-59 5 4 9 -3 9 -14 0 -26 37 -29 56 -3 13 15 15 15 27 1 6 -8 20 -18 30 -22
26 -10 32 -35 13 -56 -9 -10 -16 -22 -16 -28 0 -27 -227 -142 -251 -127 -5 2
-11 21 -15 42 -7 39 -28 79 -51 98 -8 7 -15 21 -18 32 -5 28 -63 105 -80 108
-9 1 -6 -12 12 -44 14 -26 29 -51 34 -57 5 -5 9 -21 9 -36 0 -15 7 -29 15 -33
8 -3 15 -12 15 -20 0 -8 14 -30 31 -48 17 -18 37 -43 45 -55 13 -17 22 -20 56
-16 23 2 50 9 59 14 27 14 31 11 24 -13 -19 -64 -57 -120 -127 -191 -85 -86
-99 -118 -78 -183 27 -82 16 -154 -24 -154 -6 0 -22 -12 -35 -25 -20 -21 -22
-32 -17 -65 6 -36 4 -41 -19 -52 -14 -6 -25 -18 -25 -27 0 -18 -43 -86 -72
-115 -25 -23 -154 -42 -175 -24 -7 6 -12 16 -10 22 2 6 -10 33 -26 61 -16 27
-31 65 -34 85 -3 19 -16 57 -30 83 -28 54 -27 105 3 138 27 30 -1 143 -45 183
-18 17 -21 29 -19 80 l3 61 -33 0 c-21 0 -37 6 -43 18 -11 19 -78 24 -96 6 -6
-6 -41 -12 -77 -14 -72 -3 -77 -1 -173 91 -40 38 -42 42 -36 85 8 60 7 80 -1
109 -8 31 51 127 95 152 18 11 29 25 29 39 0 13 15 37 36 56 30 27 34 35 24
48 -7 8 -18 15 -26 15 -20 0 -31 31 -24 75 l5 40 58 1 c61 1 69 5 73 31 3 18
-12 36 -38 46 -28 10 -22 30 6 23 13 -3 26 -3 28 2 2 4 21 16 43 27 21 11 50
30 63 43 14 12 33 22 43 22 14 0 19 7 19 29 0 20 6 30 20 34 18 5 24 -3 22
-24 -1 -4 8 -5 18 -2 16 4 19 2 14 -11 -4 -9 -3 -16 2 -15 5 1 17 -1 26 -5 9
-4 26 -2 38 4 11 6 28 9 38 6 22 -7 39 4 44 29 3 15 11 20 31 18 15 -1 27 2
27 8 0 5 -8 9 -17 9 -15 0 -14 2 3 15 18 14 18 14 -7 15 -21 0 -28 6 -32 27
-6 34 -1 43 22 43 19 0 48 27 39 36 -8 7 -58 -14 -58 -26 0 -5 -6 -10 -12 -10
-7 0 -24 -9 -38 -20 -25 -19 -25 -19 -5 -35 20 -15 20 -16 -2 -31 -13 -9 -23
-23 -23 -30 0 -7 -13 -20 -29 -28 -28 -15 -29 -14 -47 19 -18 34 -20 35 -66
29 -50 -7 -53 -4 -60 41 -2 15 10 26 51 48 29 15 67 39 83 52 16 14 34 25 40
25 6 0 8 6 5 14 -4 9 4 16 21 19 15 3 45 10 67 16 22 6 65 11 95 11 59 0 270
-48 270 -62 0 -18 -52 -28 -89 -18 -53 15 -55 13 -24 -20 31 -33 46 -39 36
-14 -4 12 0 14 21 8 16 -4 26 -2 26 5 0 6 17 14 39 17 32 5 38 10 34 25 -4 15
0 19 21 19 27 0 35 -15 14 -23 -7 -3 -3 -6 10 -6 12 -1 22 3 22 7 0 13 130 35
178 30 23 -2 42 0 42 4 0 5 -7 8 -15 8 -8 0 -15 5 -15 11 0 7 7 8 18 4 9 -4
37 -11 62 -15 25 -5 54 -12 65 -16 19 -8 19 -7 3 10 -24 24 -23 27 18 59 38
31 84 31 84 1 0 -11 5 -12 18 -6 9 5 38 9 65 8 30 -1 47 3 47 11 0 6 10 13 23
15 31 6 -160 21 -263 21 -61 1 -93 -4 -115 -16 -16 -9 -35 -17 -41 -17 -6 0
-17 -7 -24 -15 -10 -12 -9 -16 4 -21 9 -3 16 -11 16 -16 0 -13 -99 -3 -113 11
-12 12 50 58 110 81 l48 18 -35 6 c-68 12 -247 25 -423 32 -156 6 -177 5 -172
-8 9 -22 -18 -29 -48 -13 -22 11 -28 11 -47 -7 -15 -14 -28 -18 -50 -13 -17 4
-30 10 -30 15 0 18 -42 22 -203 20 -93 0 -213 4 -268 11 -55 6 -102 9 -105 6
-3 -2 2 -12 12 -21 13 -14 14 -19 3 -32 -10 -12 -10 -15 1 -12 7 2 14 -2 17
-8 2 -7 -7 -14 -20 -18 -32 -8 -71 -42 -57 -51 15 -9 12 -25 -5 -25 -8 0 -15
-4 -15 -9 0 -11 -78 -31 -122 -31 -21 0 -48 -10 -68 -25 -20 -15 -47 -25 -68
-25 -25 0 -35 -5 -39 -20 -3 -11 -10 -20 -15 -20 -5 0 -16 -16 -24 -36 -10
-23 -20 -34 -29 -30 -8 2 -31 10 -52 16 -46 13 -71 33 -102 84 -20 32 -22 42
-12 57 6 11 8 19 4 18 -23 -4 -33 3 -33 21 0 11 -4 20 -10 20 -5 0 -10 7 -10
15 0 9 -12 27 -26 40 -24 23 -36 25 -112 25 -69 0 -91 4 -120 22 -32 20 -33
22 -16 35 26 19 -3 16 -46 -5z m2180 -167 c0 -9 -9 -15 -25 -15 -29 0 -34 16
-7 23 30 8 32 7 32 -8z m-3928 -19 c18 -8 50 -18 71 -21 40 -6 49 -24 18 -32
-11 -3 -22 -11 -25 -19 -7 -18 -24 -18 -60 1 -15 8 -34 15 -42 15 -15 0 -34
30 -34 54 0 20 29 20 72 2z m2805 -48 c19 -16 8 -25 -47 -38 -40 -10 -57 -10
-83 1 -46 18 -59 30 -48 43 12 14 160 9 178 -6z m-2696 -38 c6 0 7 -4 4 -10
-7 -12 -55 -13 -55 -2 0 15 13 23 28 17 7 -3 18 -5 23 -5z m1559 -29 c0 -6 -4
-13 -10 -16 -5 -3 -10 1 -10 9 0 9 5 16 10 16 6 0 10 -4 10 -9z m-1500 -31 c0
-12 -28 -25 -36 -17 -9 9 6 27 22 27 8 0 14 -5 14 -10z m3240 0 c0 -5 -4 -10
-10 -10 -5 0 -10 5 -10 10 0 6 5 10 10 10 6 0 10 -4 10 -10z m2510 -30 c0 -5
-7 -10 -16 -10 -8 0 -12 5 -9 10 3 6 10 10 16 10 5 0 9 -4 9 -10z m-5523 -25
c-7 -16 -37 -21 -37 -5 0 10 32 31 39 25 2 -2 1 -11 -2 -20z m2600 10 c8 -9
13 -18 10 -21 -3 -4 13 -23 35 -44 45 -41 47 -70 5 -70 -14 0 -38 -3 -54 -6
-29 -6 -30 -4 -27 22 1 16 8 30 13 32 17 6 13 20 -8 27 -23 7 -34 44 -19 62
14 17 26 16 45 -2z m383 -4 c0 -6 -4 -13 -10 -16 -5 -3 -10 1 -10 9 0 9 5 16
10 16 6 0 10 -4 10 -9z m-1700 -26 c0 -8 -7 -15 -15 -15 -16 0 -20 12 -8 23
11 12 23 8 23 -8z m1262 -45 c-3 -31 -11 -39 -42 -42 -21 -3 -24 1 -22 22 7
48 70 68 64 20z m-2178 -6 c4 -9 4 -19 2 -22 -10 -9 -36 8 -36 23 0 20 26 19
34 -1z m1156 -99 c-10 -13 -7 -17 21 -29 24 -10 38 -11 47 -4 8 7 12 7 12 -1
0 -11 -71 -51 -91 -51 -6 0 -8 7 -5 16 5 12 2 15 -11 9 -10 -4 -30 -12 -45
-17 -17 -6 -28 -17 -28 -28 0 -11 -12 -22 -30 -28 -16 -6 -35 -22 -41 -36 -10
-21 -14 -23 -25 -11 -23 23 -16 45 21 66 19 12 35 25 35 30 0 5 7 9 15 9 8 0
15 5 15 10 0 33 15 49 40 43 12 -3 22 2 29 16 7 12 21 21 33 21 17 0 18 -2 8
-15z m-216 -441 c4 -10 1 -14 -6 -12 -15 5 -23 28 -10 28 5 0 13 -7 16 -16z
m3470 8 c3 -5 -2 -19 -11 -31 -20 -29 -40 -13 -24 18 12 22 26 27 35 13z
m-3465 -55 c24 -12 43 -26 42 -32 -3 -19 -46 -10 -67 14 -15 18 -30 24 -62 24
-23 0 -39 4 -36 8 10 17 79 9 123 -14z m136 -51 c18 -13 16 -15 -28 -21 -44
-7 -79 2 -49 12 6 3 10 9 6 14 -9 14 50 10 71 -5z m-130 -16 c3 -5 -1 -10 -9
-10 -9 0 -16 5 -16 10 0 6 4 10 9 10 6 0 13 -4 16 -10z m185 0 c0 -5 -7 -10
-16 -10 -8 0 -12 5 -9 10 3 6 10 10 16 10 5 0 9 -4 9 -10z m3273 -3 c3 -7 3
-25 0 -40 -4 -20 -1 -27 11 -27 9 0 20 -8 23 -17 4 -10 12 -21 19 -25 7 -5 10
-17 7 -28 -3 -11 0 -20 6 -20 12 0 15 -29 5 -54 -8 -20 -33 -21 -41 0 -3 8
-12 13 -19 10 -8 -3 -14 1 -14 9 0 8 4 15 8 15 4 0 8 9 8 20 0 11 -4 20 -9 20
-4 0 -5 5 -2 10 5 8 11 7 21 -1 20 -17 17 2 -6 31 -16 21 -20 22 -20 7 0 -10
-7 -20 -15 -23 -8 -4 -15 -11 -15 -16 0 -6 -11 -21 -25 -34 -35 -33 -31 -6 5
33 27 28 30 37 24 72 -7 42 -1 71 15 71 5 0 11 -6 14 -13z m-1173 -107 c0 -5
-4 -10 -9 -10 -6 0 -13 5 -16 10 -3 6 1 10 9 10 9 0 16 -4 16 -10z m-2033 -36
c13 -4 21 -10 18 -14 -6 -10 -55 0 -55 11 0 10 7 11 37 3z m2501 -57 c-2 -11
-8 -22 -14 -24 -15 -5 -26 25 -18 49 5 15 8 17 20 7 8 -7 14 -21 12 -32z
m-2418 -19 c0 -5 -7 -8 -15 -8 -13 0 -35 28 -35 45 0 9 49 -28 50 -37z m3060
-3 c9 -11 10 -18 1 -29 -7 -9 -8 -22 -3 -37 7 -18 2 -36 -18 -74 -14 -27 -29
-49 -33 -49 -68 13 -93 26 -105 52 -16 38 -9 56 33 72 19 7 49 28 67 47 36 37
41 39 58 18z m-345 -35 c10 -12 34 -30 53 -42 18 -11 38 -31 42 -44 5 -13 17
-24 26 -24 14 0 16 -7 11 -40 -6 -44 -10 -41 70 -46 24 -2 53 -10 65 -18 12
-9 37 -16 56 -16 18 0 31 -4 28 -9 -7 -11 -137 -2 -150 10 -6 5 -20 9 -32 9
-13 0 -29 6 -36 13 -7 7 -28 23 -45 35 -18 13 -49 51 -69 85 -20 34 -45 72
-57 85 -20 22 -20 22 0 22 11 0 28 -9 38 -20z m519 -74 c-10 -26 -23 -18 -20
12 5 38 6 39 16 20 6 -9 7 -23 4 -32z m-67 7 c-8 -9 -25 -11 -45 -7 -43 9 -32
22 18 20 32 0 37 -3 27 -13z m-31 -35 c-12 -7 -14 -14 -6 -28 5 -10 10 -26 10
-36 0 -16 -1 -16 -19 0 -17 16 -19 16 -24 -5 -3 -11 -10 -18 -16 -15 -6 4 -8
13 -5 20 3 8 1 17 -4 20 -5 3 -7 16 -5 29 4 21 11 24 45 24 30 0 36 -2 24 -9z
m201 -1 c-3 -8 -1 -20 3 -28 7 -11 12 -10 28 4 24 22 31 22 102 -7 63 -26 95
-50 95 -73 0 -7 14 -24 30 -38 29 -23 29 -24 8 -25 -13 0 -32 9 -43 20 -20 20
-60 28 -60 11 0 -17 -44 -21 -53 -5 -6 11 -17 14 -33 10 -23 -6 -35 9 -13 16
11 4 -27 58 -41 58 -5 0 -21 5 -37 11 -20 7 -24 12 -14 18 10 7 9 10 -8 16
-31 10 -25 25 10 25 22 0 30 -4 26 -13z m-452 -27 c3 -5 1 -10 -4 -10 -6 0
-11 5 -11 10 0 6 2 10 4 10 3 0 8 -4 11 -10z m330 -10 c3 -5 -1 -10 -9 -10 -9
0 -16 5 -16 10 0 6 4 10 9 10 6 0 13 -4 16 -10z m65 1 c0 -5 -11 -8 -25 -8
-14 0 -25 3 -25 8 0 5 11 9 25 9 14 0 25 -4 25 -9z m380 -19 c0 -19 -39 -44
-59 -37 -27 8 -18 25 9 18 12 -3 22 1 26 11 6 17 24 22 24 8z m-310 -31 c0 -6
-4 -13 -10 -16 -5 -3 -10 1 -10 9 0 9 5 16 10 16 6 0 10 -4 10 -9z m360 -7 c0
-8 -4 -12 -10 -9 -5 3 -10 10 -10 16 0 5 5 9 10 9 6 0 10 -7 10 -16z m-500
-28 c9 -12 4 -19 -29 -36 -23 -11 -41 -16 -41 -10 0 6 7 13 15 16 8 4 12 10 9
15 -3 5 2 9 10 9 9 0 16 5 16 10 0 14 5 13 20 -4z m90 10 c0 -3 -4 -8 -10 -11
-5 -3 -10 -1 -10 4 0 6 5 11 10 11 6 0 10 -2 10 -4z m444 -11 c3 -8 1 -15 -4
-15 -6 0 -10 7 -10 15 0 8 2 15 4 15 2 0 6 -7 10 -15z m36 -5 c0 -5 -2 -10 -4
-10 -3 0 -8 5 -11 10 -3 6 -1 10 4 10 6 0 11 -4 11 -10z m-635 -10 c-3 -5 -17
-10 -30 -10 -13 0 -27 5 -30 10 -4 6 8 10 30 10 22 0 34 -4 30 -10z m-50 -21
c11 -17 -1 -21 -15 -4 -8 9 -8 15 -2 15 6 0 14 -5 17 -11z m400 -50 c4 -17 13
-33 20 -35 7 -3 16 -19 19 -37 3 -17 21 -45 39 -61 106 -101 118 -148 67 -251
-16 -33 -30 -66 -30 -72 0 -7 -11 -13 -25 -13 -14 0 -25 -4 -25 -9 0 -13 -79
-8 -105 6 -12 6 -27 23 -34 36 -9 17 -19 23 -29 20 -11 -5 -13 -3 -7 7 6 10 4
12 -8 7 -11 -4 -26 3 -43 20 -24 24 -30 25 -87 19 -33 -3 -71 -13 -83 -21 -13
-8 -38 -15 -57 -15 -18 0 -38 -5 -44 -11 -5 -5 -22 -7 -36 -4 -22 6 -25 11
-21 34 3 16 -2 44 -11 67 -42 96 -25 146 61 174 31 10 53 25 59 38 5 12 15 22
22 22 6 0 21 12 33 27 18 23 31 29 75 32 6 1 22 11 35 24 22 21 30 22 63 14
30 -8 36 -13 32 -28 -4 -13 3 -27 21 -44 37 -34 58 -29 62 15 6 83 24 101 37
39z m-215 21 c0 -5 -4 -10 -10 -10 -5 0 -10 5 -10 10 0 6 5 10 10 10 6 0 10
-4 10 -10z m-1410 -52 c0 -36 -38 -176 -53 -195 -29 -39 -74 11 -60 65 4 15 6
33 4 41 -6 29 9 61 30 61 12 0 27 12 37 30 23 40 42 39 42 -2z m2050 -34 c0
-8 -4 -12 -10 -9 -5 3 -10 13 -10 21 0 8 5 12 10 9 6 -3 10 -13 10 -21z m-30
-94 c18 -14 21 -20 9 -20 -9 0 -24 9 -34 20 -23 26 -8 26 25 0z m150 -275 c13
-14 32 -25 42 -25 24 0 23 -5 -8 -46 -30 -39 -44 -43 -44 -14 0 11 -4 20 -8
20 -5 0 -7 13 -4 29 2 16 -1 32 -7 35 -13 8 -15 26 -3 26 5 0 19 -11 32 -25z
m-462 -107 c4 -19 -26 -44 -37 -32 -5 5 -12 19 -15 31 -6 19 -4 21 21 19 15
-2 29 -10 31 -18z m442 5 c0 -10 -19 -37 -43 -60 -33 -32 -48 -41 -65 -36 -31
8 -27 30 9 52 17 10 37 28 45 40 18 26 54 28 54 4z m-4120 -24 c0 -5 -4 -9
-10 -9 -5 0 -10 7 -10 16 0 8 5 12 10 9 6 -3 10 -10 10 -16z m74 -155 c22 -9
10 -24 -20 -24 -25 0 -33 15 -11 23 6 3 13 6 14 6 1 1 8 -2 17 -5z m324 -462
c2 -7 -7 -12 -22 -12 -27 0 -35 15 -13 23 17 7 30 3 35 -11z"/>
<path d="M5280 1850 c0 -5 5 -10 11 -10 5 0 7 5 4 10 -3 6 -8 10 -11 10 -2 0
-4 -4 -4 -10z"/>
<path d="M5123 1726 c-35 -19 -63 -48 -63 -63 0 -7 11 -18 25 -25 30 -14 52 1
72 50 20 49 9 61 -34 38z"/>
<path d="M4880 1676 c0 -9 5 -16 10 -16 6 0 10 4 10 9 0 6 -4 13 -10 16 -5 3
-10 -1 -10 -9z"/>
<path d="M5520 1598 c0 -26 16 -35 70 -42 l55 -7 -33 30 c-34 32 -92 43 -92
19z"/>
<path d="M5790 3108 c-52 -5 -115 -12 -140 -17 l-45 -9 50 -1 c28 -1 68 -4 90
-7 22 -3 53 -6 69 -7 16 -1 31 -7 33 -13 6 -18 -85 -23 -141 -9 -30 8 -58 10
-70 5 -12 -5 -15 -9 -8 -9 7 -1 10 -5 7 -11 -4 -6 17 -10 55 -10 34 0 70 -6
83 -14 12 -7 50 -14 84 -14 36 -1 72 -7 85 -15 14 -9 43 -14 78 -12 32 1 58
-2 62 -9 6 -8 8 -7 8 2 0 6 7 12 15 12 9 0 12 6 9 15 -8 19 12 20 23 1 4 -7
34 -16 66 -20 l57 -6 0 65 c0 76 15 70 -179 85 -148 11 -156 11 -291 -2z m460
-38 c0 -6 -7 -13 -15 -16 -10 -4 -13 -13 -10 -24 8 -25 -46 -44 -81 -28 -17 8
-28 8 -35 1 -16 -16 -49 -3 -49 18 0 15 6 18 25 15 13 -3 29 -7 35 -11 6 -3
12 0 15 7 4 9 19 13 43 11 20 -1 29 0 20 3 -25 8 -22 22 5 27 40 8 47 7 47 -3z
m0 -79 c0 -12 -20 -25 -27 -18 -7 7 6 27 18 27 5 0 9 -4 9 -9z"/>
<path d="M1320 3100 c0 -5 12 -10 28 -10 21 0 24 2 12 10 -20 13 -40 13 -40 0z"/>
<path d="M1400 3106 c0 -2 9 -6 20 -9 11 -3 20 -1 20 4 0 5 -9 9 -20 9 -11 0
-20 -2 -20 -4z"/>
<path d="M1518 3103 c6 -2 18 -2 25 0 6 3 1 5 -13 5 -14 0 -19 -2 -12 -5z"/>
<path d="M1195 3090 c-3 -5 -1 -10 4 -10 6 0 11 5 11 10 0 6 -2 10 -4 10 -3 0
-8 -4 -11 -10z"/>
<path d="M5120 3070 c0 -5 -15 -13 -32 -18 -27 -7 -13 -10 71 -15 61 -4 109
-2 116 3 12 10 79 3 107 -12 10 -4 15 -15 12 -23 -7 -16 21 -22 30 -6 3 5 32
8 65 7 36 -1 66 3 77 11 10 8 13 13 5 13 -7 0 -9 5 -6 11 4 6 1 10 -6 8 -30
-4 -49 2 -49 14 0 9 -47 12 -195 14 -113 1 -195 -2 -195 -7z"/>
<path d="M1330 3060 c0 -7 -72 -13 -164 -14 -43 0 -52 -2 -36 -8 32 -12 120
-16 120 -6 0 4 13 8 29 8 24 0 30 -5 35 -30 5 -26 10 -30 37 -30 36 0 35 -18
-2 -37 -23 -12 -22 -13 18 -13 33 0 41 3 37 15 -4 9 3 16 20 21 14 3 24 10 21
14 -3 5 3 13 12 19 10 6 14 11 10 11 -4 0 -19 -7 -33 -16 -19 -13 -28 -14 -37
-5 -6 6 -21 11 -32 11 -35 0 -37 12 -8 35 l27 22 -27 5 c-15 3 -27 2 -27 -2z"/>
<path d="M1440 3045 c7 -8 17 -12 22 -9 6 4 5 10 -3 15 -22 14 -33 10 -19 -6z"/>
<path d="M1538 3021 c-26 -16 -26 -17 -9 -40 10 -13 29 -25 42 -26 38 -4 39
-4 39 -21 0 -14 3 -14 15 -4 23 19 18 27 -22 37 -43 10 -56 39 -27 60 27 20
-5 15 -38 -6z"/>
<path d="M5105 2995 l-30 -13 28 -1 c34 -1 63 -15 99 -49 16 -15 33 -22 43
-18 13 5 7 15 -29 51 -49 48 -64 52 -111 30z"/>
<path d="M4401 2970 c0 -8 4 -24 9 -35 5 -13 9 -14 9 -5 0 8 -4 24 -9 35 -5
13 -9 14 -9 5z"/>
<path d="M4930 2960 c-16 -10 -124 -26 -150 -22 -8 1 -31 7 -51 13 -33 10 -41
8 -82 -16 -35 -20 -69 -29 -139 -37 -51 -5 -105 -10 -120 -9 -31 0 -36 -10
-13 -29 15 -13 48 -10 100 8 17 6 64 16 105 23 41 6 89 15 105 20 17 5 77 11
135 14 58 3 134 14 170 24 l65 20 -55 0 c-30 0 -62 -4 -70 -9z"/>
<path d="M3565 2940 c-24 -27 -10 -41 49 -47 42 -5 46 -3 58 21 10 23 9 29 -3
37 -26 16 -85 10 -104 -11z"/>
<path d="M3470 2921 c-12 -24 -13 -51 -2 -51 10 0 72 54 72 63 0 17 -60 6 -70
-12z"/>
<path d="M5520 2921 c-80 -11 -26 -21 79 -14 56 3 100 7 99 8 -8 7 -140 12
-178 6z"/>
<path d="M3401 2909 c-13 -5 -39 -22 -57 -37 -18 -15 -48 -38 -66 -52 l-32
-25 44 -6 c60 -8 73 -2 120 55 56 67 53 90 -9 65z"/>
<path d="M5733 2903 c9 -2 23 -2 30 0 6 3 -1 5 -18 5 -16 0 -22 -2 -12 -5z"/>
<path d="M1023 2893 c9 -2 23 -2 30 0 6 3 -1 5 -18 5 -16 0 -22 -2 -12 -5z"/>
<path d="M3677 2883 c-12 -11 -8 -23 8 -23 8 0 15 7 15 15 0 16 -12 20 -23 8z"/>
<path d="M3970 2859 c-14 -4 -37 -11 -52 -14 -47 -9 -33 -32 24 -39 46 -6 54
-5 76 17 39 39 14 58 -48 36z"/>
<path d="M4060 2855 c0 -17 2 -18 24 -9 23 9 20 24 -4 24 -11 0 -20 -7 -20
-15z"/>
<path d="M5341 2865 c-1 -5 8 -21 19 -35 11 -14 20 -20 20 -14 0 7 -9 22 -20
35 -10 13 -19 20 -19 14z"/>
<path d="M1790 2850 c-14 -9 11 -20 43 -20 38 0 87 -23 87 -42 0 -27 47 -35
65 -12 16 22 11 34 -15 34 -11 0 -32 5 -47 11 -15 6 -37 15 -48 19 -32 13 -73
18 -85 10z m170 -60 c0 -5 -7 -10 -15 -10 -8 0 -15 5 -15 10 0 6 7 10 15 10 8
0 15 -4 15 -10z"/>
<path d="M5501 2831 c-11 -7 -9 -11 9 -21 24 -13 48 0 36 19 -9 13 -26 14 -45
2z"/>
<path d="M3740 2816 c0 -9 5 -16 10 -16 6 0 10 4 10 9 0 6 -4 13 -10 16 -5 3
-10 -1 -10 -9z"/>
<path d="M1148 2813 c7 -3 16 -2 19 1 4 3 -2 6 -13 5 -11 0 -14 -3 -6 -6z"/>
<path d="M3660 2806 c0 -20 13 -27 29 -16 11 6 9 10 -8 19 -17 10 -21 9 -21
-3z"/>
<path d="M4236 2788 c3 -13 8 -25 10 -27 2 -2 44 -5 94 -8 76 -3 91 -1 97 13
10 26 -17 35 -83 28 -40 -4 -64 -2 -68 5 -4 6 -18 11 -32 11 -22 0 -24 -3 -18
-22z"/>
<path d="M4802 2793 c2 -10 12 -18 23 -18 11 0 21 8 23 18 3 13 -3 17 -23 17
-20 0 -26 -4 -23 -17z"/>
<path d="M5071 2801 c-14 -4 -26 -12 -28 -18 -6 -17 41 -27 66 -14 11 6 24 11
28 10 27 -5 35 1 23 16 -13 16 -47 18 -89 6z"/>
<path d="M4580 2795 c0 -3 14 -12 31 -19 23 -10 42 -11 70 -3 60 15 46 27 -31
27 -38 0 -70 -2 -70 -5z"/>
<path d="M5189 2792 c11 -8 11 -10 0 -15 -11 -4 -11 -6 -1 -6 7 -1 11 -5 8
-10 -4 -5 10 -4 29 2 37 11 47 27 18 27 -10 0 -29 3 -43 6 -18 4 -21 3 -11 -4z"/>
<path d="M3588 2783 c7 -3 16 -2 19 1 4 3 -2 6 -13 5 -11 0 -14 -3 -6 -6z"/>
<path d="M4875 2770 c-3 -5 -1 -10 4 -10 6 0 11 5 11 10 0 6 -2 10 -4 10 -3 0
-8 -4 -11 -10z"/>
<path d="M1580 2562 c0 -12 50 -33 61 -26 16 10 -11 34 -37 34 -13 0 -24 -4
-24 -8z"/>
<path d="M3763 2532 c-13 -2 -20 -8 -17 -16 9 -24 -28 -28 -48 -6 -23 25 -30
25 -48 2 -31 -39 -40 -61 -28 -68 8 -5 5 -10 -8 -15 -17 -7 -17 -8 4 -8 12 -1
22 4 22 10 0 6 7 8 16 5 9 -4 23 -1 30 5 8 7 27 9 46 5 76 -16 106 -18 113 -6
8 12 -16 35 -54 51 -19 8 -21 12 -11 24 15 19 12 22 -17 17z"/>
<path d="M1670 2525 c0 -2 5 -16 10 -31 7 -18 14 -24 21 -17 12 12 2 40 -17
47 -8 3 -14 4 -14 1z"/>
<path d="M3988 2517 c-34 -13 -36 -42 -6 -74 17 -18 19 -26 10 -35 -20 -20
-14 -36 19 -47 48 -17 50 -15 46 36 -4 36 -11 52 -32 70 -26 23 -27 25 -10 43
20 22 14 23 -27 7z"/>
<path d="M1624 2512 c-15 -10 -25 -64 -10 -59 6 2 10 12 9 23 -1 10 6 24 15
31 18 13 5 18 -14 5z"/>
<path d="M1715 2510 c3 -5 8 -10 11 -10 2 0 4 5 4 10 0 6 -5 10 -11 10 -5 0
-7 -4 -4 -10z"/>
<path d="M3350 2497 c0 -13 13 -24 68 -57 24 -15 30 -23 22 -33 -6 -6 -19 -23
-30 -35 -13 -17 -25 -22 -39 -17 -31 10 -25 25 9 25 37 0 38 13 4 37 -14 10
-41 31 -61 47 -29 25 -38 28 -54 18 -10 -7 -34 -12 -54 -12 -26 0 -33 -4 -29
-15 4 -9 -3 -16 -20 -21 -16 -4 -28 -15 -32 -29 -8 -32 -38 -57 -69 -57 -14 0
-25 -5 -25 -10 0 -10 51 -3 124 18 53 15 124 18 143 6 6 -4 13 -16 15 -27 6
-38 135 -88 164 -64 24 20 95 16 141 -8 34 -18 47 -20 77 -12 25 7 36 16 36
29 0 10 5 22 10 25 6 3 10 15 10 26 0 17 -4 19 -36 13 -26 -5 -39 -3 -45 7 -6
10 -9 11 -9 2 0 -17 -30 -16 -52 0 -9 7 -20 25 -23 40 -9 33 -19 40 -45 32
-22 -7 -27 -31 -8 -37 9 -3 7 -10 -6 -23 -18 -18 -19 -18 -37 6 -11 13 -22 34
-25 47 -4 12 -30 38 -59 57 -57 39 -65 41 -65 22z m-50 -41 c0 -3 -4 -8 -10
-11 -5 -3 -10 -1 -10 4 0 6 5 11 10 11 6 0 10 -2 10 -4z m-2 -43 c-5 -25 -28
-28 -28 -4 0 12 6 21 16 21 9 0 14 -7 12 -17z m282 -93 c0 -5 -4 -10 -9 -10
-6 0 -13 5 -16 10 -3 6 1 10 9 10 9 0 16 -4 16 -10z m145 0 c-3 -5 -13 -10
-21 -10 -8 0 -14 5 -14 10 0 6 9 10 21 10 11 0 17 -4 14 -10z"/>
<path d="M3417 1693 c-9 -2 -15 -9 -12 -14 4 -5 -4 -9 -17 -9 -13 0 -29 -5
-36 -12 -9 -9 -12 -9 -12 2 0 11 -3 11 -12 2 -9 -9 -8 -16 6 -29 10 -10 28
-36 40 -58 12 -22 27 -40 34 -40 7 0 17 -6 21 -14 12 -19 85 22 101 57 6 15
20 32 31 40 23 16 26 62 4 62 -8 0 -15 5 -15 10 0 10 -98 12 -133 3z"/>
</g>
</svg>
